# xmcd
#
# Track frame offsets: 
#        150
#        25647
#        47289
#
# Disc length: 1002 seconds
#
# Revision: 2
# Processed by: cddbd v1.5.2PL0 Copyright (c) Steve Scherf et al.
# Submitted via: ExactAudioCopy v1.0b3
#
DISCID=1303e803
DTITLE=Galileo Galilei - 青い栞
DYEAR=2011
DGENRE=JPop
TTITLE0=青い栞 
TTITLE1=SGP 
TTITLE2=スワン 
EXTD=YEAR: 2011
EXTT0=
EXTT1=
EXTT2=
PLAYORDER=
